<mxfile host="Electron" agent="Mozilla/5.0 (Windows NT 10.0; Win64; x64) AppleWebKit/537.36 (KHTML, like Gecko) draw.io/28.2.5 Chrome/138.0.7204.251 Electron/37.6.1 Safari/537.36" version="28.2.5">
  <diagram name="Page-1" id="MwJTaeE_4XDlnFMwa3Z8">
    <mxGraphModel dx="1011" dy="453" grid="1" gridSize="10" guides="1" tooltips="1" connect="1" arrows="1" fold="1" page="1" pageScale="1" pageWidth="827" pageHeight="1169" math="0" shadow="0">
      <root>
        <mxCell id="0" />
        <mxCell id="1" parent="0" />
        <mxCell id="p1EQK2nhMEggmiTQR9OL-2" value="" style="rounded=0;whiteSpace=wrap;html=1;" vertex="1" parent="1">
          <mxGeometry x="360" y="120" width="280" height="110" as="geometry" />
        </mxCell>
        <mxCell id="p1EQK2nhMEggmiTQR9OL-3" value="" style="rounded=0;whiteSpace=wrap;html=1;" vertex="1" parent="1">
          <mxGeometry x="80" y="120" width="210" height="160" as="geometry" />
        </mxCell>
        <mxCell id="p1EQK2nhMEggmiTQR9OL-5" value="Node1" style="text;html=1;align=center;verticalAlign=middle;whiteSpace=wrap;rounded=0;" vertex="1" parent="1">
          <mxGeometry x="380" y="80" width="60" height="30" as="geometry" />
        </mxCell>
        <mxCell id="p1EQK2nhMEggmiTQR9OL-6" value="Master" style="text;html=1;align=center;verticalAlign=middle;whiteSpace=wrap;rounded=0;" vertex="1" parent="1">
          <mxGeometry x="70" y="80" width="60" height="30" as="geometry" />
        </mxCell>
        <mxCell id="p1EQK2nhMEggmiTQR9OL-8" value="" style="rounded=1;whiteSpace=wrap;html=1;" vertex="1" parent="1">
          <mxGeometry x="370" y="140" width="100" height="50" as="geometry" />
        </mxCell>
        <mxCell id="p1EQK2nhMEggmiTQR9OL-9" value="POD" style="text;html=1;align=center;verticalAlign=middle;whiteSpace=wrap;rounded=0;" vertex="1" parent="1">
          <mxGeometry x="390" y="150" width="60" height="30" as="geometry" />
        </mxCell>
        <mxCell id="p1EQK2nhMEggmiTQR9OL-10" value="Kubelet&lt;br&gt;Kube Proxy&lt;div&gt;Container RunTimer&lt;/div&gt;" style="text;html=1;align=left;verticalAlign=middle;whiteSpace=wrap;rounded=0;" vertex="1" parent="1">
          <mxGeometry x="486" y="140" width="130" height="60" as="geometry" />
        </mxCell>
        <mxCell id="p1EQK2nhMEggmiTQR9OL-12" value="Kubelet&lt;div&gt;Kube Proxy&lt;/div&gt;&lt;div&gt;Container RunTimer&lt;/div&gt;" style="text;html=1;whiteSpace=wrap;overflow=hidden;rounded=0;" vertex="1" parent="1">
          <mxGeometry x="360" y="360" width="180" height="70" as="geometry" />
        </mxCell>
        <mxCell id="p1EQK2nhMEggmiTQR9OL-14" value="Contorl Plane&lt;div&gt;Components&lt;/div&gt;" style="text;html=1;align=center;verticalAlign=middle;whiteSpace=wrap;rounded=0;" vertex="1" parent="1">
          <mxGeometry x="130" y="80" width="100" height="30" as="geometry" />
        </mxCell>
        <mxCell id="p1EQK2nhMEggmiTQR9OL-15" value="Data Plane&lt;div&gt;Componenets&lt;/div&gt;" style="text;html=1;align=center;verticalAlign=middle;whiteSpace=wrap;rounded=0;" vertex="1" parent="1">
          <mxGeometry x="450" y="80" width="100" height="30" as="geometry" />
        </mxCell>
        <mxCell id="p1EQK2nhMEggmiTQR9OL-16" value="API Server&lt;div&gt;ETCD&lt;/div&gt;&lt;div&gt;Scheduler&lt;/div&gt;&lt;div&gt;Control Manager&lt;/div&gt;&lt;div&gt;Cloud Control Manager&lt;/div&gt;" style="text;html=1;whiteSpace=wrap;overflow=hidden;rounded=0;" vertex="1" parent="1">
          <mxGeometry x="80" y="320" width="180" height="120" as="geometry" />
        </mxCell>
        <mxCell id="p1EQK2nhMEggmiTQR9OL-17" value="API Server&lt;div&gt;ETCD&lt;/div&gt;&lt;div&gt;Scheduler&lt;/div&gt;&lt;div&gt;Control Manager&lt;/div&gt;&lt;div&gt;Cloud Control Manager&lt;/div&gt;" style="text;html=1;align=left;verticalAlign=middle;whiteSpace=wrap;rounded=0;" vertex="1" parent="1">
          <mxGeometry x="150" y="135" width="130" height="85" as="geometry" />
        </mxCell>
        <mxCell id="p1EQK2nhMEggmiTQR9OL-18" value="" style="rounded=0;whiteSpace=wrap;html=1;" vertex="1" parent="1">
          <mxGeometry x="360" y="250" width="280" height="110" as="geometry" />
        </mxCell>
        <mxCell id="p1EQK2nhMEggmiTQR9OL-19" value="" style="rounded=1;whiteSpace=wrap;html=1;" vertex="1" parent="1">
          <mxGeometry x="371" y="263" width="100" height="50" as="geometry" />
        </mxCell>
        <mxCell id="p1EQK2nhMEggmiTQR9OL-20" value="POD" style="text;html=1;align=center;verticalAlign=middle;whiteSpace=wrap;rounded=0;" vertex="1" parent="1">
          <mxGeometry x="391" y="273" width="60" height="30" as="geometry" />
        </mxCell>
        <mxCell id="p1EQK2nhMEggmiTQR9OL-21" value="Kubelet&lt;br&gt;Kube Proxy&lt;div&gt;Container RunTimer&lt;/div&gt;" style="text;html=1;align=left;verticalAlign=middle;whiteSpace=wrap;rounded=0;" vertex="1" parent="1">
          <mxGeometry x="487" y="263" width="130" height="60" as="geometry" />
        </mxCell>
        <mxCell id="p1EQK2nhMEggmiTQR9OL-22" value="Node2" style="text;html=1;align=center;verticalAlign=middle;whiteSpace=wrap;rounded=0;" vertex="1" parent="1">
          <mxGeometry x="300" y="233" width="60" height="30" as="geometry" />
        </mxCell>
      </root>
    </mxGraphModel>
  </diagram>
</mxfile>
